<svg width="5225" height="5949" viewBox="0 0 5225 5949" fill="none" xmlns="http://www.w3.org/2000/svg">
<path d="M0 2084.61C0 1780.54 246.499 1534.04 550.57 1534.04H4673.73C4977.8 1534.04 5224.3 1780.53 5224.3 2084.61V3624.44C5224.3 3928.51 4977.8 4175.01 4673.73 4175.01H2891C2800.31 4175.01 2711.02 4197.41 2631.07 4240.23L1646.98 4767.27C1545.25 4821.75 1423.33 4742.98 1431.18 4627.86L1462.07 4175.01H731.035H550.57C246.499 4175.01 0 3928.51 0 3624.44V2084.61Z" fill="white"/>
<path d="M4575.85 3636.55C5070.14 3402.53 4944.93 2145.53 4820.55 1546.27C5079.93 1599.9 5197.79 1848.95 5224.3 1966.77V3685.3C5181.48 3938.19 5022.42 4133.95 4704.31 4176.77L2905.79 4170.66H2807.91L2679.44 4213.48L2312.39 4409.24L1584.42 4794.64L1859.7 4567.1L2171.69 4256.3L2416.39 4133.95C3413.53 3707.36 3957.99 3929.06 4575.85 3636.55Z" fill="#76AFDB" fill-opacity="0.5"/>
<path d="M1095.76 3301.78L914.745 2973.23H863.913V3301.78H651.907V2431.44H1007.73C1076.33 2431.44 1134.6 2443.42 1182.54 2467.39C1231.31 2491.36 1267.68 2524.42 1291.64 2566.58C1315.61 2607.9 1327.6 2654.19 1327.6 2705.44C1327.6 2763.29 1311.07 2814.95 1278.01 2860.41C1245.77 2905.87 1197.83 2938.1 1134.19 2957.12L1335.04 3301.78H1095.76ZM863.913 2823.22H995.332C1034.18 2823.22 1063.11 2813.71 1082.12 2794.7C1101.95 2775.69 1111.87 2748.83 1111.87 2714.11C1111.87 2681.05 1101.95 2655.02 1082.12 2636.01C1063.11 2617 1034.18 2607.49 995.332 2607.49H863.913V2823.22ZM1672.69 2601.29V2777.34H1956.6V2941H1672.69V3131.93H1993.8V3301.78H1460.68V2431.44H1993.8V2601.29H1672.69ZM2602.45 2431.44V2952.16C2602.45 3004.23 2615.27 3044.31 2640.89 3072.42C2666.51 3100.52 2704.12 3114.57 2753.71 3114.57C2803.3 3114.57 2841.32 3100.52 2867.77 3072.42C2894.22 3044.31 2907.45 3004.23 2907.45 2952.16V2431.44H3119.45V2950.92C3119.45 3028.61 3102.92 3094.32 3069.86 3148.04C3036.8 3201.77 2992.17 3242.27 2935.96 3269.55C2880.58 3296.82 2818.59 3310.46 2749.99 3310.46C2681.39 3310.46 2619.81 3297.23 2565.26 3270.79C2511.54 3243.51 2468.97 3203.01 2437.56 3149.28C2406.15 3094.73 2390.45 3028.61 2390.45 2950.92V2431.44H2602.45ZM3583.24 3310.46C3519.59 3310.46 3462.56 3300.13 3412.14 3279.46C3361.72 3258.8 3321.22 3228.22 3290.64 3187.72C3260.89 3147.22 3245.18 3098.45 3243.53 3041.42H3469.17C3472.48 3073.66 3483.64 3098.45 3502.65 3115.81C3521.66 3132.34 3546.45 3140.61 3577.04 3140.61C3608.44 3140.61 3633.24 3133.58 3651.42 3119.53C3669.61 3104.65 3678.7 3084.4 3678.7 3058.78C3678.7 3037.29 3671.26 3019.52 3656.38 3005.47C3642.33 2991.42 3624.56 2979.84 3603.07 2970.75C3582.41 2961.66 3552.65 2951.33 3513.81 2939.76C3457.6 2922.4 3411.73 2905.04 3376.19 2887.69C3340.65 2870.33 3310.07 2844.71 3284.44 2810.82C3258.82 2776.93 3246.01 2732.71 3246.01 2678.16C3246.01 2597.16 3275.35 2533.93 3334.03 2488.47C3392.72 2442.18 3469.17 2419.04 3563.4 2419.04C3659.28 2419.04 3736.56 2442.18 3795.24 2488.47C3853.93 2533.93 3885.33 2597.57 3889.47 2679.4H3660.1C3658.45 2651.3 3648.12 2629.39 3629.11 2613.69C3610.1 2597.16 3585.71 2588.89 3555.96 2588.89C3530.34 2588.89 3509.67 2595.92 3493.97 2609.97C3478.27 2623.2 3470.41 2642.62 3470.41 2668.24C3470.41 2696.34 3483.64 2718.25 3510.09 2733.95C3536.54 2749.66 3577.86 2766.6 3634.07 2784.78C3690.27 2803.79 3735.73 2821.98 3770.45 2839.33C3805.99 2856.69 3836.57 2881.9 3862.19 2914.96C3887.81 2948.02 3900.62 2990.59 3900.62 3042.66C3900.62 3092.25 3887.81 3137.3 3862.19 3177.8C3837.39 3218.3 3801.03 3250.54 3753.09 3274.5C3705.15 3298.47 3648.53 3310.46 3583.24 3310.46ZM4243.1 2601.29V2777.34H4527.01V2941H4243.1V3131.93H4564.21V3301.78H4031.09V2431.44H4564.21V2601.29H4243.1Z" fill="#386EA1"/>
<path d="M977.227 669.851C942.629 690.986 931.716 736.167 952.851 770.765C973.986 805.363 1019.17 816.277 1053.76 795.142L977.227 669.851ZM4219.6 778.437C4258.48 766.957 4280.7 726.129 4269.22 687.245L4082.14 53.6001C4070.66 14.7165 4029.84 -7.49869 3990.95 3.98114C3952.07 15.461 3929.85 56.2886 3941.33 95.1722L4107.62 658.413L3544.38 824.701C3505.5 836.181 3483.28 877.009 3494.76 915.892C3506.24 954.776 3547.07 976.991 3585.95 965.511L4219.6 778.437ZM1053.76 795.142C1293.5 648.691 1766.13 475.636 2333.99 423.796C2900.63 372.068 3555.62 441.63 4163.73 772.513L4233.9 643.55C3594.05 295.393 2908.24 223.943 2320.64 277.585C1734.26 331.116 1239.21 509.813 977.227 669.851L1053.76 795.142Z" fill="white"/>
<path d="M4237.08 5279.36C4271.68 5258.22 4282.59 5213.04 4261.46 5178.44C4240.32 5143.85 4195.14 5132.93 4160.54 5154.07L4237.08 5279.36ZM994.71 5170.77C955.827 5182.25 933.612 5223.08 945.091 5261.96L1132.17 5895.61C1143.65 5934.49 1184.47 5956.71 1223.36 5945.23C1262.24 5933.75 1284.46 5892.92 1272.98 5854.04L1106.69 5290.8L1669.93 5124.51C1708.81 5113.03 1731.03 5072.2 1719.55 5033.32C1708.07 4994.43 1667.24 4972.22 1628.36 4983.7L994.71 5170.77ZM4160.54 5154.07C3920.81 5300.52 3448.18 5473.57 2880.32 5525.41C2313.68 5577.14 1658.69 5507.58 1050.58 5176.7L980.41 5305.66C1620.26 5653.82 2306.07 5725.27 2893.67 5671.62C3480.05 5618.09 3975.1 5439.4 4237.08 5279.36L4160.54 5154.07Z" fill="white"/>
</svg>
