<svg width="5224" height="5948" viewBox="0 0 5224 5948" fill="none" xmlns="http://www.w3.org/2000/svg">
<path d="M0 2084.53C0 1780.48 246.485 1533.99 550.539 1533.99H4673.46C4977.52 1533.99 5224 1780.48 5224 2084.53V3624.28C5224 3928.33 4977.52 4174.81 4673.46 4174.81H2890.84C2800.15 4174.81 2710.86 4197.22 2630.92 4240.03L1646.88 4767.05C1545.16 4821.52 1423.25 4742.76 1431.1 4627.64L1461.99 4174.81H730.993H550.539C246.485 4174.81 0 3928.33 0 3624.28V2084.53Z" fill="#386EA1"/>
<path d="M4575.56 3636.39C5069.82 3402.39 4944.62 2145.46 4820.24 1546.24C5079.61 1599.86 5197.46 1848.89 5223.97 1966.71V3685.14C5181.15 3938.02 5022.11 4133.77 4704.02 4176.59L2905.59 4170.47H2807.72L2679.26 4213.29L2312.23 4409.04L1584.3 4794.42L1859.57 4566.89L2171.54 4256.11L2416.22 4133.77C3413.31 3707.21 3957.73 3928.89 4575.56 3636.39Z" fill="#76AFDB" fill-opacity="0.5"/>
<path d="M1095.67 3301.66L914.673 2973.14H863.844V3301.66H651.85V2431.37H1007.65C1076.25 2431.37 1134.52 2443.36 1182.45 2467.32C1231.22 2491.29 1267.58 2524.35 1291.55 2566.5C1315.52 2607.83 1327.5 2654.11 1327.5 2705.35C1327.5 2763.21 1310.97 2814.86 1277.91 2860.32C1245.68 2905.78 1197.74 2938.01 1134.11 2957.02L1334.94 3301.66H1095.67ZM863.844 2823.13H995.255C1034.1 2823.13 1063.03 2813.62 1082.04 2794.61C1101.87 2775.6 1111.79 2748.74 1111.79 2714.03C1111.79 2680.97 1101.87 2654.94 1082.04 2635.93C1063.03 2616.92 1034.1 2607.41 995.255 2607.41H863.844V2823.13ZM1672.57 2601.22V2777.26H1956.47V2940.9H1672.57V3131.82H1993.67V3301.66H1460.58V2431.37H1993.67V2601.22H1672.57ZM2602.29 2431.37V2952.06C2602.29 3004.13 2615.1 3044.21 2640.72 3072.31C2666.34 3100.41 2703.94 3114.46 2753.53 3114.46C2803.12 3114.46 2841.14 3100.41 2867.59 3072.31C2894.04 3044.21 2907.26 3004.13 2907.26 2952.06V2431.37H3119.25V2950.82C3119.25 3028.51 3102.72 3094.22 3069.67 3147.94C3036.61 3201.66 2991.98 3242.16 2935.77 3269.43C2880.4 3296.71 2818.41 3310.34 2749.81 3310.34C2681.22 3310.34 2619.64 3297.12 2565.09 3270.67C2511.37 3243.4 2468.81 3202.9 2437.4 3149.18C2406 3094.63 2390.29 3028.51 2390.29 2950.82V2431.37H2602.29ZM3583.01 3310.34C3519.37 3310.34 3462.34 3300.01 3411.93 3279.35C3361.51 3258.69 3321.01 3228.11 3290.43 3187.61C3260.68 3147.11 3244.98 3098.35 3243.32 3041.32H3468.96C3472.26 3073.55 3483.42 3098.35 3502.43 3115.7C3521.44 3132.23 3546.23 3140.5 3576.81 3140.5C3608.22 3140.5 3633.01 3133.47 3651.2 3119.42C3669.38 3104.55 3678.47 3084.3 3678.47 3058.68C3678.47 3037.19 3671.03 3019.42 3656.15 3005.37C3642.1 2991.32 3624.34 2979.75 3602.85 2970.66C3582.18 2961.56 3552.43 2951.23 3513.59 2939.66C3457.38 2922.31 3411.51 2904.95 3375.98 2887.59C3340.44 2870.24 3309.86 2844.62 3284.24 2810.73C3258.61 2776.84 3245.8 2732.63 3245.8 2678.08C3245.8 2597.08 3275.14 2533.86 3333.82 2488.4C3392.51 2442.12 3468.96 2418.98 3563.18 2418.98C3659.05 2418.98 3736.32 2442.12 3795 2488.4C3853.69 2533.86 3885.09 2597.5 3889.22 2679.32H3659.87C3658.22 2651.22 3647.89 2629.32 3628.88 2613.61C3609.87 2597.08 3585.49 2588.82 3555.74 2588.82C3530.12 2588.82 3509.45 2595.84 3493.75 2609.89C3478.05 2623.12 3470.2 2642.54 3470.2 2668.16C3470.2 2696.26 3483.42 2718.16 3509.87 2733.87C3536.31 2749.57 3577.64 2766.51 3633.84 2784.7C3690.04 2803.71 3735.5 2821.89 3770.21 2839.24C3805.75 2856.6 3836.33 2881.81 3861.95 2914.87C3887.57 2947.93 3900.38 2990.49 3900.38 3042.56C3900.38 3092.15 3887.57 3137.19 3861.95 3177.69C3837.16 3218.19 3800.79 3250.42 3752.85 3274.39C3704.92 3298.36 3648.3 3310.34 3583.01 3310.34ZM4242.84 2601.22V2777.26H4526.74V2940.9H4242.84V3131.82H4563.93V3301.66H4030.84V2431.37H4563.93V2601.22H4242.84Z" fill="#F5F1E6"/>
<path d="M977.214 669.832C942.618 690.966 931.705 736.144 952.839 770.74C973.973 805.336 1019.15 816.249 1053.75 795.115L977.214 669.832ZM4219.4 778.411C4258.28 766.932 4280.5 726.107 4269.02 687.225L4081.95 53.6163C4070.47 14.7348 4029.65 -7.47906 3990.77 4.00009C3951.89 15.4793 3929.67 56.3046 3941.15 95.186L4107.43 658.394L3544.22 824.673C3505.34 836.152 3483.13 876.978 3494.61 915.859C3506.08 954.74 3546.91 976.954 3585.79 965.475L4219.4 778.411ZM1053.75 795.115C1293.47 648.673 1766.07 475.628 2333.9 423.791C2900.5 372.066 3555.46 441.624 4163.53 772.489L4233.7 643.532C3593.88 295.396 2908.12 223.95 2320.55 277.588C1734.2 331.116 1239.18 509.803 977.214 669.832L1053.75 795.115Z" fill="#386EA1"/>
<path d="M4236.8 5279.08C4271.39 5257.94 4282.31 5212.76 4261.17 5178.17C4240.04 5143.57 4194.86 5132.66 4160.26 5153.79L4236.8 5279.08ZM994.611 5170.5C955.73 5181.98 933.516 5222.8 944.995 5261.68L1132.06 5895.29C1143.54 5934.17 1184.36 5956.39 1223.24 5944.91C1262.13 5933.43 1284.34 5892.6 1272.86 5853.72L1106.58 5290.51L1669.79 5124.23C1708.67 5112.76 1730.89 5071.93 1719.41 5033.05C1707.93 4994.17 1667.1 4971.95 1628.22 4983.43L994.611 5170.5ZM4160.26 5153.79C3920.54 5300.23 3447.94 5473.28 2880.11 5525.12C2313.51 5576.84 1658.55 5507.28 1050.48 5176.42L980.312 5305.38C1620.13 5653.51 2305.89 5724.96 2893.46 5671.32C3479.81 5617.79 3974.83 5439.11 4236.8 5279.08L4160.26 5153.79Z" fill="#386EA1"/>
</svg>
